# xmcd
#
# Track frame offsets:
#	150
#	16841
#	38188
#	55838
#	74722
#	96032
#	110712
#	124797
#	139358
#	158066
#	182989
#	205438
#	231060
#
# Disc length: 3254
#
# Revision: 3
# Processed by: cddbd v1.5.1PL0 Copyright (c) Steve Scherf et al.
# Submitted via: dBpowerAMP V4.0
# Normalized: r2:DSETVAR1
#
DISCID=be0cb40d
DTITLE=Various Artist - No Depression: What It Sounds Like, Vol.
DYEAR=1900
DGENRE=country
TTITLE0=Johnny Cash - The Time of the Preacher
TTITLE1=Allison Moorer - Is Heaven Good Enough for You
TTITLE2=Whiskeytown - Faithless Street
TTITLE3=Alejandro Escovedo - Five Hearts Breaking
TTITLE4=Doug Sahm - Cowboy Peyton Place
TTITLE5=Buddy Miller - Does My Ring Burn Your Finger
TTITLE6=Robbie Fulks with Kelly Willis - Parallel Bars
TTITLE7=Neko Case and Her Boyfriends - Thrice All American
TTITLE8=Kevin Gordon with Lucinda Williams - Down to the Well
TTITLE9=Kasey Chambers - Dam
TTITLE10=Hayseed with Emmylou Harris - Farther Along
TTITLE11=The Hole Dozen (featuring Mark Olson, Victoria Williams and Friends) - How \nI Love Them Old Songs
TTITLE12=The Carter Family - No Depression in Heaven
EXTD=www.nodepression.net
EXTT0=
EXTT1=
EXTT2=
EXTT3=
EXTT4=
EXTT5=
EXTT6=
EXTT7=
EXTT8=
EXTT9=
EXTT10=
EXTT11=
EXTT12=
PLAYORDER=
